<svg viewBox="0 0 2000 1200" fill="none" xmlns="http://www.w3.org/2000/svg">
<path fill-rule="evenodd" clip-rule="evenodd" d="M173.6 1157H172.1H170.7L171.4 1153H175L173.6 1157ZM162.8 1153L161.3 1157H157.7L158.5 1153H159.9H162.8ZM179.3 1153H177.2H176.5H177.9H180H179.3ZM188 1153H186.5H184.4H180.8L182.9 1149H187.2H188.7L188 1153ZM154.8 1157H152L146.9 1153H141.9H134.7L134 1149H141.9H144.8H148.4L151.2 1153H155.6L154.8 1157ZM1656 1153L1651 1157L1652 1149L1664 1141L1667 1145L1670 1149H1662L1656 1153ZM118.9 1145L123.9 1149H126.8H129.7H128.9L126.1 1153H118.9L114.5 1149H108.1V1141L112.4 1145H118.9ZM233.3 1141H234.1L232.6 1145H226.9L223.3 1141L222.5 1145H221.8L219.7 1149H216.8L212.5 1153H207.4L204.5 1149L201.7 1153H195.2L193 1157L190.1 1153L196.6 1149L202.4 1145H205.3L208.9 1149H211.7L212.5 1145V1141H214.6H216.8H218.2H221.8H223.3L224 1137H226.1H229L231.2 1141H233.3ZM84.2901 1141H85.0101H82.1301L79.2501 1137L80.6901 1133L84.2901 1141ZM91.4901 1133L90.7701 1137L86.4501 1133H88.6101H90.7701H91.4901ZM72.7701 1129H69.1701L67.7301 1125H71.3301H73.4901V1129H72.7701ZM44.6501 1105L43.2101 1109L41.0501 1105L46.0901 1101H47.5301L44.6501 1105ZM766.1 1113V1121H769.7L771.3 1125L777.7 1129L767.7 1137L761.7 1141L756.9 1137L748.9 1141L741.7 1157L732.9 1145L730.9 1125L727.3 1117L735.3 1109L732.5 1101L734.5 1097L762.5 1109L766.1 1113ZM44.6501 1097H40.3301L35.3101 1093H37.4701H41.7701L44.6501 1097ZM344.9 1101L339.9 1105L337 1109L334.9 1105H333.4V1109L330.5 1113L327.7 1117L324.8 1113L326.9 1109L324.1 1101L328.4 1097L332 1101L336.3 1097V1089L341.3 1085H346.4V1089H340.6V1093L342.8 1097L344.9 1101ZM708.5 1085H697.7L706.5 1081L708.5 1085ZM694.9 1077H689.3L684.1 1069H688.5H695.7L694.9 1077ZM703.7 1061L709.3 1069H718.5L728.9 1073V1077L725.3 1081L711.3 1085L709.3 1073H705.7L700.5 1069V1065L703.7 1061ZM1037 1097L1040 1109L1036 1097L1038 1081V1077L1041 1069L1044 1065L1047 1057H1050L1043 1069L1038 1081L1037 1097ZM688.5 1053L689.7 1057H699.3L693.3 1061H674.1L677.7 1057H686.9L688.5 1053ZM242.7 1057H237.7L230.5 1049H240.5H242.7V1057ZM661.7 1049L660.9 1053H653.7H648.1H640.9L635.7 1041L642.9 1037L647.3 1033L653.3 1041L653.7 1045L656.9 1049H661.7ZM197.3 1037L193.7 1041L190.1 1037L191.6 1033L195.2 1037H197.3ZM564.5 1025L559.7 1029H556.5L557.3 1025L562.5 1021H565.3L564.5 1025ZM591.3 1025H581.3L574.5 1021L575.3 1017L583.3 1013H590.5L595.7 1017L591.3 1025ZM1136 996.7L1123 1005L1133 996.7H1136ZM211.7 988.7L216.8 992.7H221.8L223.2 996.7L230.4 1001L221.8 1005L218.2 996.7H211L211.7 988.7ZM1251 980.7L1246 984.3L1238 980.7L1244 977.5L1251 980.7ZM319.7 894.3L320.5 899.9L324.1 895.5L328.4 900.7L334.9 898.3L337.7 899.9L338.5 902.7L341.3 905.5L352.9 902.7L362.2 907.1L372.3 906.3L376.6 909.1L384.5 904.3L398.9 909.9L426.5 1045L434.9 1049L439.3 1045L440.1 1049L454.5 1057L455.3 1061L460.9 1057L462.5 1049L467.3 1045H471.7L473.3 1049V1053L487.7 1061L503.3 1077L509.3 1081L519.3 1085H528.5L527.7 1089L532.1 1097L529.3 1105L524.9 1101L520.5 1105L515.7 1097H512.9L514.1 1101L518.5 1109L514.1 1113H512.1L500.5 1105V1097L496.9 1093L496.1 1101H491.7V1093L489.7 1089L488.9 1093H484.1L468.1 1077L465.3 1069L436.5 1057L437.7 1053H438.5H434.9L432.9 1057L423.3 1053H412.1L401.7 1061L403.3 1053H390.3L385.3 1045H375.9H370.9L372.3 1049L377.3 1053L375.9 1057L372.3 1061H365.8L357.2 1069L349.3 1073H344.9L352.9 1065H347.8H344.9L349.3 1057V1049L355.7 1045L358.6 1049L363.7 1045L357.2 1041H352.9L346.4 1049L341.3 1057H339.2V1061L336.3 1065H335.6L333.4 1069H330.5L329.8 1077H334.1L330.5 1085L327.7 1089L321.9 1093L319.7 1097H316.9L314 1101H311.1L309.7 1105L305.3 1109H301.7L300.3 1113H295.3L293.1 1117L289.5 1121L285.2 1125H279.4H275.8H275.1L270.1 1129L267.9 1125H265.7L263.6 1129L260.7 1133H256.4H252L248.4 1137H242.7L234 1141L233.3 1137L237.6 1129H248.4H253.5L262.8 1121H270H272.2L274.4 1117L280.1 1113L288.8 1109H291.6L294.5 1101L299.6 1097H300.3L302.5 1085L306.8 1077L297.4 1081L294.5 1077L291.7 1085L287.3 1077H283.7L280.9 1073L275.8 1077H272.2L269.3 1081L266.5 1077H268.6L267.9 1069L271.5 1065L267.9 1057L261.4 1061L254.9 1057L248.4 1049L247 1045L249.2 1041H247.7L245.6 1037L244.8 1033L242.7 1029L245.6 1025L247.7 1021L254.2 1017L257.1 1009H260H265L266.5 1013L272.2 1009L279.4 1005H284.5L283.7 996.7L280.1 992.7L285.2 988.7L284.4 984.7L280.1 985.5L275.8 988.3L272.2 992.7L270.8 988.7L265.7 988.3H257.8L249.9 984.3L248.4 977.5L252 973.9L242 968.3L260.7 959.5L269.3 958.3V964.7L280.8 969.1L284.4 963.9L283 957.5L285.9 954.7L272.2 951.1L270.8 942.3L258.5 930.3L261.4 927.9L262.1 922.3H275.1L286.6 905.5L292.4 905.1L302.4 898.3H308.2L316.1 891.1L319.7 894.3ZM286.6 738.7L293.1 749.5L288.8 747.1L286.6 738.7ZM257.8 685.9V690.3L252.8 688.3L252.1 684.7L257.8 685.9ZM248.5 688.7L243.4 689.5L240.5 683.9L246.3 684.7L248.5 688.7ZM1798 661.5L1799 663.5H1796L1792 666.7L1794 665.1L1796 662.3L1798 661.5ZM1794 428.3L1790 431.1L1791 428.3V426.7V425.5L1794 423.9V428.3ZM1900 365.5L1888 369.1L1890 368.3L1894 361.1L1900 365.5ZM1915 366.3L1912 367.1L1908 366.3L1912 364.7L1913 361.1L1916 364.3L1915 366.3ZM1464 250.3L1455 253.9L1452 252.7L1458 248.3L1460 245.9L1464 250.3ZM1294 185.5L1290 189.1L1286 187.9L1288 184.7L1296 180.7L1306 173.5V177.1L1303 180.7L1294 185.5ZM333.4 81.9V85.5L326.9 80.3L328.4 75.5L324.8 71.1L329.8 69.5L329.1 79.5L333.4 81.9ZM321.9 56.7H317.6L316.8 52.3H320.5L321.9 56.7ZM330.5 53.1L327.6 55.1L322.6 52.3L326.2 50.3L330.5 53.1ZM410.5 60.3L442.9 68.3L460.1 72.3L481.7 77.5L492.5 80.3L520.5 86.3L557.3 93.9L576.1 97.5L605.7 103.5L628.5 107.1L654.5 111.5L669.7 114.3L704.9 119.1L740.9 124.3L770.5 127.9L801.3 131.5L830.9 134.3L859.7 136.7L891.3 139.5L918.1 141.1L932.5 142.3L970.5 143.9L989.3 144.7L1004 145.1L1034 145.9L1055 146.7H1079H1110H1115L1114 129.9L1120 130.7L1123 133.5L1128 151.1V155.5L1130 158.3L1136 159.1L1140 161.1L1152 161.9L1154 166.3L1163 164.7V163.1L1171 160.3L1174 161.1H1176L1184 164.7L1187 169.1L1191 168.3L1195 177.5L1198 177.1V172.7L1201 171.1L1206 173.5L1205 175.5L1212 177.5L1215 181.1L1223 184.3L1228 181.9L1234 177.5L1238 174.7L1242 180.7H1253L1260 179.1L1264 179.9L1267 184.3L1272 181.9L1275 183.5L1271 187.9L1266 190.7L1249 197.1L1244 200.7L1236 207.9L1224 223.1L1220 225.1L1214 231.5L1206 238.7L1208 241.9L1215 242.3L1222 239.5L1235 233.9L1242 229.5L1245 232.3L1241 238.3V245.5L1247 241.9L1252 245.5H1256L1267 240.3L1271 235.9L1274 233.9L1284 231.5L1290 228.7L1292 225.1L1298 223.1L1300 219.5L1310 210.7L1312 207.1L1319 202.7L1330 201.5V205.1L1324 209.5L1318 213.5L1313 225.9L1314 231.5L1319 225.1L1325 225.9H1329L1336 227.9L1342 235.9L1348 241.9L1354 241.1L1358 239.5L1363 242.3L1369 243.1L1371 239.5L1382 231.1L1390 228.7L1401 227.9L1408 224.3L1416 223.1L1415 233.9L1416 235.1H1424L1428 233.9L1431 235.9L1434 232.3L1443 231.1L1442 234.7L1444 244.7L1452 253.1H1446H1442L1436 255.5V253.1L1429 251.9L1425 260.3L1419 255.5L1409 252.7L1403 253.1L1400 258.3L1393 259.9L1392 261.9L1384 261.1L1380 263.9L1379 269.1L1377 270.7L1374 271.1L1372 277.1L1370 275.5L1374 267.1H1367L1365 273.5L1362 275.5L1359 274.3L1354 281.9L1349 294.3L1345 299.9V302.3L1344 307.1L1341 307.9L1337 314.3L1335 321.1L1334 326.7L1337 327.5L1342 321.5V320.3L1346 313.1L1351 310.7L1356 297.9L1362 295.9V300.7L1360 302.3L1358 310.7L1354 314.3V319.5L1351 326.7L1349 335.5L1351 341.1L1347 344.7L1346 353.9L1347 362.7L1345 369.1L1342 382.3L1343 385.1L1346 399.5L1349 402.3L1348 407.5L1349 414.7L1348 423.1L1351 429.1L1354 431.9L1357 441.9L1360 447.5L1365 450.7H1370L1379 445.5L1382 443.5L1388 436.7L1392 426.7L1395 421.1L1397 413.1L1398 397.9L1396 388.7L1394 382.7L1389 375.1L1386 368.3L1383 362.7L1386 353.5L1382 343.1L1385 338.3L1388 330.3L1389 323.1L1388 315.1L1392 311.5V305.9L1396 303.1H1400L1401 298.7L1406 297.1V310.3L1409 310.7L1411 305.9L1413 303.1V295.1L1411 290.7V287.9L1416 283.5L1419 282.7L1418 274.3L1422 267.5L1428 263.9L1437 268.3L1441 267.5L1444 268.3L1448 273.5H1454L1457 275.5L1470 279.9L1472 283.5L1474 286.3L1470 291.5L1472 295.9L1475 297.9L1478 303.5V313.1V320.3L1473 323.9L1472 328.7L1470 336.7L1464 337.5L1463 341.1L1462 347.5L1464 350.3L1471 353.5L1478 346.7L1479 341.9L1482 335.5L1488 333.1L1492 330.3L1498 332.3L1503 339.1L1504 344.7L1508 355.5L1511 366.3L1514 374.3V376.3V383.5V390.7L1509 393.1L1507 387.9L1504 390.7V398.7L1502 403.1L1498 405.1L1497 408.7L1498 415.1L1496 418.3L1489 429.1V431.9L1499 435.5L1506 439.1L1504 441.9L1508 442.7L1515 440.3L1522 442.7L1526 440.3L1529 439.9L1536 434.7L1538 435.5L1545 434.7L1552 427.5L1558 421.1L1566 415.9L1580 407.9L1586 404.3L1602 391.5L1610 383.5L1614 379.1L1619 375.5L1621 369.9L1626 365.5L1625 361.9L1619 353.5L1616 346.3L1629 339.1L1634 337.5L1648 335.5L1655 334.7L1662 337.5L1668 335.5L1674 333.1L1680 332.3L1687 328.3L1689 324.7L1695 318.7L1698 317.9L1701 315.1L1700 310.7L1698 305.1L1700 299.5L1695 297.9L1691 293.5L1692 289.1L1696 285.1L1704 277.9L1706 272.7L1716 256.3L1724 247.5L1729 245.5H1732L1752 241.1L1773 235.1L1777 233.9L1796 229.5L1815 224.3L1828 221.5V211.5L1830 207.9L1836 209.5V206.3L1840 203.5L1844 205.1L1843 199.9L1848 198.7L1845 195.5V191.9L1848 187.1L1851 183.5L1850 180.7L1853 176.3L1854 173.5L1850 170.3L1851 164.7L1849 163.1L1850 156.7L1854 151.9L1853 145.1L1852 140.3L1865 101.9L1871 102.7L1872 109.9L1877 110.7L1885 104.3L1891 102.7V99.1L1894 98.3L1904 102.7L1910 106.3L1924 152.3L1927 163.1L1933 164.7L1939 163.9L1938 169.1L1941 171.9V177.1L1947 181.9L1948 179.1H1952L1962 191.5L1958 199.9L1954 200.7L1952 204.3H1948V208.7L1940 211.5L1937 214.3L1938 217.1L1936 220.7L1933 215.9L1928 217.1L1933 221.5L1932 224.3L1926 225.9V219.5L1920 223.1L1921 227.9L1916 227.5L1914 228.7L1912 219.5V222.3L1908 225.1L1910 229.5L1909 233.1V240.3L1908 247.5L1902 245.9L1900 247.5V253.9L1894 254.7L1893 259.9H1889L1884 262.7L1881 261.9L1879 267.1L1882 271.1L1878 273.5L1879 277.9L1875 282.7L1874 295.9L1873 296.3L1872 305.1L1875 312.3L1880 315.1L1874 318.7L1872 324.7L1871 330.3H1872L1876 331.1L1878 330.3L1879 331.1L1886 335.9L1885 341.1L1891 342.7L1892 346.7L1898 349.1L1902 346.7L1908 343.9L1912 347.5L1897 354.7V357.5L1891 359.9L1890 351.9L1884 357.1L1883 361.1L1878 364.7L1871 365.5L1874 358.3L1872 357.1H1868L1866 356.3L1867 360.7L1868 368.3V373.5L1856 378.7L1853 379.1L1842 384.4L1841 382.9L1836 386.3L1824 388.7L1819 395.2L1816 395.9L1810 402.4L1803 406.7L1801 411.5V415.3L1803 415.9V411.7L1807 408.9L1811 410.3L1812 405.9L1818 406.7L1823 403.1L1836 398.7L1842 392.3L1847 393.5L1850 392.3L1853 394.3L1856 389.9H1859L1843 403.5L1821 418.2L1816 420.7L1812 422.3L1805 423.9L1800 425.9L1796 424.7V421.1L1801 415.3L1795 420.6V421.1L1791 424.7V425.5V426.7L1789 431.9L1792 433.1H1800L1801 437.5V446.3L1802 461.5L1800 471.5L1797 473.5L1798 476.3L1796 480.7L1792 484.3L1789 490.3L1787 498.7L1784 503.1L1782 499.5L1783 495.9L1782 492.3L1773 491.5L1764 486.7L1759 484.3L1757 478.7V477.9L1760 469.1L1758 469.9L1756 479.5L1757 484.3L1760 488.7L1764 490.3L1766 495.1L1767 501.1L1771 504.7L1776 509.5L1780 510.3L1784 523.9L1783 539.9L1782 543.5L1780 549.9H1778L1774 557.9V565.1L1773 569.9L1771 582.3L1766 586.7L1764 581.5V567.9L1766 559.9L1768 557.1L1769 548.3L1761 549.1L1764 545.5L1760 540.7L1761 537.5H1758V532.7L1754 539.9L1748 535.5L1746 536.3L1742 531.9L1745 529.1L1742 525.5L1746 523.9L1751 525.5L1743 521.1L1740 520.3V516.7L1743 515.5L1742 511.1V504.7L1738 503.1L1740 495.1L1741 492.3L1745 491.5L1744 483.5L1741 485.1V489.5L1736 495.9L1733 493.1L1734 495.1L1732 501.5L1729 501.1V502.3L1733 504.7V511.1L1734 513.1L1732 521.9L1734 523.1L1736 530.3L1741 536.3L1739 539.1H1742L1745 546.3L1740 547.9L1736 544.7L1729 544.3L1727 540.7L1725 543.5L1720 537.5L1714 542.7L1712 537.5L1714 530.3L1711 529.9L1710 537.1L1712 543.5L1714 544.3L1721 540.7L1722 544.7L1724 547.1L1728 548.3L1736 547.9L1739 551.9L1750 555.5L1749 559.1V565.1L1748 567.9H1742L1738 562.3H1736L1727 555.5L1737 564.3L1739 565.1L1743 569.9L1750 572.3L1754 574.3L1753 580.3L1749 577.1L1748 579.5L1752 583.1L1748 585.1L1751 587.9L1756 589.5V593.9L1753 595.1L1745 591.1V589.5H1740L1735 587.5L1733 588.7L1742 591.1L1743 593.9L1750 597.5V598.7H1754H1756L1757 595.1L1761 595.9L1767 595.1L1775 610.3L1781 622.7L1780 623.5L1777 615.5L1774 613.1V623.5V626.3L1768 623.5H1766L1771 626.3L1768 630.7L1765 628.3L1767 630.7L1760 634.3L1756 637.9L1752 637.1L1750 633.5V627.1L1749 629.1V633.5L1752 641.5L1757 640.7L1762 637.9L1764 639.9L1770 635.5L1774 634.7L1776 637.9L1775 641.5L1777 648.7H1778L1777 639.1L1780 634.3L1785 637.9L1788 645.1L1787 650.7L1783 649.9L1778 661.5L1772 664.3L1767 665.1L1761 661.5L1764 656.3L1758 659.5L1761 664.3L1760 666.7L1766 669.5L1764 676.7L1760 681.5L1757 683.9L1752 681.1V684.7L1759 685.9L1762 683.1L1768 680.3L1774 684.7L1771 689.5L1766 693.1L1756 694.7L1749 698.3L1743 705.5L1738 711.1L1732 718.3L1729 724.7L1727 735.5L1725 737.9H1721L1712 739.1L1706 742.7L1698 749.5L1692 757.1L1690 761.5L1688 769.5V775.9L1686 778.7L1684 783.9L1676 784.7L1677 789.5L1673 794.7L1668 798.3V801.1L1664 804.7L1660 806.3L1656 809.9L1653 811.9L1648 812.7L1650 816.3V819.9L1643 825.5L1641 829.1L1637 832.3V834.3L1636 839.9L1630 848.7L1627 849.5L1631 853.1L1629 855.9L1630 857.9L1626 865.1L1627 868.3L1628 871.1L1624 875.9V881.1L1626 885.5L1625 894.3L1626 901.9L1631 912.7L1639 932.3L1641 936.7L1647 945.9L1653 957.5L1665 971.1L1672 978.3L1675 983.5L1673 986.3V992.7L1676 996.7L1681 1009L1688 1021L1695 1033L1702 1045L1705 1049L1706 1057V1069L1707 1085L1709 1093L1704 1097L1702 1109L1704 1113L1702 1117L1706 1113L1703 1125L1698 1121H1695L1690 1125H1684H1683L1676 1129L1672 1125L1673 1117L1670 1113L1666 1109L1664 1105L1656 1101L1650 1097L1648 1101L1642 1089L1639 1081L1631 1073H1626L1627 1065V1061L1624 1057H1622L1624 1065H1622H1619L1614 1057L1607 1049L1601 1041L1598 1037H1601L1604 1029L1608 1021L1607 1017L1603 1021L1601 1017L1598 1013V1017L1601 1021L1600 1029H1596L1590 1021L1592 1017L1590 1009L1592 1005L1594 996.7V992.7L1593 986.3L1589 980.7L1590 977.1L1588 973.9L1584 967.5H1578L1570 963.1L1568 958.3L1561 954.7L1560 948.7L1557 948.3L1552 944.7L1548 938.7L1539 935.1L1536 933.9H1532L1526 934.3L1520 940.3L1516 943.9L1505 952.3L1496 954.7L1492 955.9L1488 956.7V951.9L1485 946.7L1480 945.1L1477 942.3L1461 934.3L1453 932.3L1445 930.7L1437 931.5L1431 932.3L1426 933.9L1418 935.9L1412 936.7L1405 939.5L1400 941.1L1396 939.5L1390 935.1L1388 925.1L1385 923.5L1382 928.7V937.5L1380 937.9L1374 936.7L1372 937.9L1370 940.3L1362 939.5L1359 940.3L1354 937.5L1339 943.9L1337 941.1V943.9L1331 949.5L1327 951.1L1324 954.7L1319 957.5L1320 960.3L1325 963.1L1328 962.7L1329 957.5L1332 955.5L1335 958.3L1339 960.3L1333 972.7L1332 971.9H1331L1326 973.5L1327 977.5L1335 982.7L1345 984.3L1352 992.7L1351 996.7H1342L1335 988.7L1328 987.9L1323 986.3L1324 984.3L1316 981.1L1314 984.7V985.5V986.3L1311 988.7L1313 992.7L1308 996.7L1304 988.7H1300H1295L1291 996.7L1284 1001L1280 996.7H1276L1267 992.7L1269 984.7H1268L1264 982.7L1260 984.3L1254 972.7L1245 973.5L1246 969.1H1241L1235 973.5L1232 973.9L1234 980.7L1228 982.7L1217 981.1L1203 975.5L1195 973.5L1184 973.9L1174 975.5L1171 977.5L1162 979.1L1151 983.5V984.3H1147L1145 983.5L1136 985.5L1138 980.7V975.5H1134L1130 979.1L1127 984.7L1132 988.7L1131 996.7L1126 1001H1122L1123 1005L1113 1013L1109 1017L1099 1021L1087 1029L1076 1033L1074 1037L1068 1041L1058 1049V1045H1059L1064 1041L1068 1037H1074L1073 1033L1064 1037V1033H1061H1058L1060 1037V1041H1059L1055 1045L1051 1041L1043 1049H1050L1047 1053V1057H1046H1035H1033H1037L1039 1061L1042 1065L1039 1069L1036 1081L1032 1077L1028 1081H1023L1031 1085L1036 1081L1034 1101H1032L1034 1109L1038 1117L1040 1125H1039L1040 1133H1045L1042 1137L1037 1141H1036H1030L1026 1137L1018 1133H1010H1002L994.5 1125H989.3H986.5L980.1 1121H977.7L970.5 1117L970.1 1113L966.9 1109L963.3 1097L956.9 1089L958.5 1085L956.9 1081L955.7 1077L956.9 1069H955.7L952.1 1065L947.7 1061L941.7 1057L941.3 1053L938.1 1049L934.5 1041H929.7L926.9 1037L925.3 1029L921.7 1021L920.1 1017L918.1 1013L914.5 1005V1001L910.1 992.7L902.1 987.9L900.9 983.5L897.3 982.7L891.3 977.5L892.1 975.5L886.5 970.3L882.1 968.3L879.3 969.9L874.9 968.3L866.9 966.3L863.3 967.5L854.9 962.7L851.3 967.5L848.1 966.3L840.5 968.3L838.1 973.5L835.3 977.1L833.7 983.5L820.9 1001L810.9 996.7L806.5 988.7L800.1 988.3L797.7 984.7L789.3 981.9L784.1 978.3L782.9 973.9L778.5 972.7L772.1 966.7L771.3 962.7L766.9 954.7L766.1 948.3L767.7 943.1L764.1 934.3L761.7 933.9L761.3 925.9L758.9 923.1L750.9 914.3L744.5 912.3L743.7 909.9L738.9 905.5L737.3 901.5L731.7 897.1L728.9 891.1L724.5 886.7L722.1 886.3L717.3 881.9L712.1 870.3L707.3 867.5L679.7 864.7L646.5 860.3L643.7 879.5L613.7 875.5L562.5 868.3L540.1 864.7L530.1 858.7L500.5 841.5L463.7 820.7L433.7 801.9L414.9 791.1L416.1 785.9L420.5 782.3L370.9 776.7L334.1 771.5L333.4 765.9L330.5 763.9L332.7 756.7L332 745.9L328.4 735.5L325.5 731.9L320.5 724.3L316.1 720.7L311.1 713.5H304.6L300.3 709.1L302.5 706.7L301.7 701.9L298.1 696.7H289.5L285.2 693.9L277.3 687.5L276.5 681.5L270.8 675.1L267.9 673.1L257.1 670.3L253.5 667.1L244.1 664.3L237.7 663.5L236.9 659.9L233.3 656.3L236.2 651.5L237.7 639.9L239.1 633.5L231.9 626.3L234.8 619.9L231.2 616.3L227.6 607.5L224.7 605.5L223.3 599.5L220.4 594.7V588.7L218.2 587.5L215.3 579.5L212.5 576.7L211 565.1L213.2 558.7L217.5 559.1L219.7 551.5L217.5 544.7H212.5L208.1 539.9L207.4 535.5L204.5 531.1L206.7 524.7L206 518.3L204.5 516.7L207.4 508.7L208.1 505.9L211.7 505.1L211 509.5L210.3 515.5L213.9 516.7L216.8 522.7L219.7 523.1L217.5 521.1L218.2 513.9L213.9 506.7L215.3 503.1L213.2 498.7L218.9 496.7L216.1 491.5L212.5 492.3L208.9 504.7L203.1 499.5L200.2 493.9L197.3 491.5L198.1 485.9V479.9L195.9 472.3L190.9 465.1L187.3 454.7L184.4 450.7L182.9 445.5L185.8 441.9L185.1 428.3L189.4 420.3L190.1 407.9L187.3 399.5L185.8 394.3L183.7 392.3L179.3 385.1L180.8 377.1L185.1 370.7L193.7 361.9L197.3 356.3L196.6 353.5L200.2 347.5L203.8 338.3L204.5 325.9L202.4 323.9L206.7 315.1L203.8 308.7V303.1L205.3 295.1L208.1 289.1L208.9 285.5L206.7 277.1L210.3 272.7L217.5 261.1L222.5 254.7L226.9 248.3L231.2 238.3L237.7 221.5L244.1 206.3L245.6 200.7L250.6 191.5L252.8 187.1L261.4 163.1V161.1L265.7 149.5L269.3 146.7L279.4 145.1L274.4 142.3L269.3 143.1L267.2 139.5L268.6 133.1L272.2 131.5L271.5 122.7L270.1 118.7L271.5 115.5L275.1 114.3V109.1L271.5 108.3L272.2 97.1L270.8 91.1L272.2 86.3V76.7L269.3 69.5L268.6 64.7L269.3 56.7L273.7 50.7L276.5 50.3L280.9 55.1L284.5 57.5L288.8 62.3L298.1 65.9L305.3 70.3L310.4 71.9L313.3 70.3L315.4 74.7L318.3 75.9L323.3 73.9L325.5 76.7L324.1 86.7L316.9 88.3L314 93.5L311.1 94.7L308.9 97.5L313.3 94.7L318.3 93.9L321.9 89.1L327.7 85.5L326.9 92.7L324.1 102.7L321.2 106.3L318.3 111.9L313.3 108.3V106.3L310.4 109.1L309.7 113.5L313.3 117.9L320.5 111.9L324.1 110.7L326.9 109.1V100.7L329.8 92.7L334.1 86.3L337.7 83.9L334.9 79.5V73.9V72.3L336.3 71.1L329.8 64.7L332.7 60.3L335.6 63.1L337.7 55.9L338.5 52.3L333.4 47.9L332 43.5L334.1 39.5L362.2 47.1L386.7 53.9L410.5 60.3Z" fill="black"/>
<path d="M223.3 1141L226.9 1145H232.6L234.1 1141H233.3H231.2L229 1137H226.1H224L223.3 1141ZM223.3 1141L222.5 1145H221.8L219.7 1149H216.8L212.5 1153H207.4L204.5 1149L201.7 1153H195.2L193 1157L190.1 1153L196.6 1149L202.4 1145H205.3L208.9 1149H211.7L212.5 1145V1141H214.6H216.8H218.2H221.8H223.3ZM1038 1081L1036 1097L1040 1109L1037 1097L1038 1081ZM1038 1081V1077L1041 1069L1044 1065L1047 1057M1038 1081L1043 1069L1050 1057H1047M1047 1057V1053L1050 1049H1043L1051 1041L1055 1045L1059 1041H1060V1037L1058 1033H1061H1064V1037L1073 1033L1074 1037M1047 1057H1046H1035H1033H1037L1039 1061L1042 1065L1039 1069L1036 1081M1123 1005L1136 996.7H1133L1123 1005ZM1123 1005L1122 1001H1126L1131 996.7L1132 988.7L1127 984.7L1130 979.1L1134 975.5H1138V980.7L1136 985.5L1145 983.5L1147 984.3H1151V983.5L1162 979.1L1171 977.5L1174 975.5L1184 973.9L1195 973.5L1203 975.5L1217 981.1L1228 982.7L1234 980.7L1232 973.9L1235 973.5L1241 969.1H1246L1245 973.5L1254 972.7L1260 984.3L1264 982.7L1268 984.7H1269L1267 992.7L1276 996.7H1280L1284 1001L1291 996.7L1295 988.7H1300H1304L1308 996.7L1313 992.7L1311 988.7L1314 986.3V985.5V984.7L1316 981.1L1324 984.3L1323 986.3L1328 987.9L1335 988.7L1342 996.7H1351L1352 992.7L1345 984.3L1335 982.7L1327 977.5L1326 973.5L1331 971.9H1332L1333 972.7L1339 960.3L1335 958.3L1332 955.5L1329 957.5L1328 962.7L1325 963.1L1320 960.3L1319 957.5L1324 954.7L1327 951.1L1331 949.5L1337 943.9V941.1L1339 943.9L1354 937.5L1359 940.3L1362 939.5L1370 940.3L1372 937.9L1374 936.7L1380 937.9L1382 937.5V928.7L1385 923.5L1388 925.1L1390 935.1L1396 939.5L1400 941.1L1405 939.5L1412 936.7L1418 935.9L1426 933.9L1431 932.3L1437 931.5L1445 930.7L1453 932.3L1461 934.3L1477 942.3L1480 945.1L1485 946.7L1488 951.9V956.7L1492 955.9L1496 954.7L1505 952.3L1516 943.9L1520 940.3L1526 934.3L1532 933.9H1536L1539 935.1L1548 938.7L1552 944.7L1557 948.3L1560 948.7L1561 954.7L1568 958.3L1570 963.1L1578 967.5H1584L1588 973.9L1590 977.1L1589 980.7L1593 986.3L1594 992.7V996.7L1592 1005L1590 1009L1592 1017L1590 1021L1596 1029H1600L1601 1021L1598 1017V1013L1601 1017L1603 1021L1607 1017L1608 1021L1604 1029L1601 1037H1598L1601 1041L1607 1049L1614 1057L1619 1065H1622H1624L1622 1057H1624L1627 1061V1065L1626 1073H1631L1639 1081L1642 1089L1648 1101L1650 1097L1656 1101L1664 1105L1666 1109L1670 1113L1673 1117L1672 1125L1676 1129L1683 1125H1684H1690L1695 1121H1698L1703 1125L1706 1113L1702 1117L1704 1113L1702 1109L1704 1097L1709 1093L1707 1085L1706 1069V1057L1705 1049L1702 1045L1695 1033L1688 1021L1681 1009L1676 996.7L1673 992.7V986.3L1675 983.5L1672 978.3L1665 971.1L1653 957.5L1647 945.9L1641 936.7L1639 932.3L1631 912.7L1626 901.9L1625 894.3L1626 885.5L1624 881.1V875.9L1628 871.1L1627 868.3L1626 865.1L1630 857.9L1629 855.9L1631 853.1L1627 849.5L1630 848.7L1636 839.9L1637 834.3V832.3L1641 829.1L1643 825.5L1650 819.9V816.3L1648 812.7L1653 811.9L1656 809.9L1660 806.3L1664 804.7L1668 801.1V798.3L1673 794.7L1677 789.5L1676 784.7L1684 783.9L1686 778.7L1688 775.9V769.5L1690 761.5L1692 757.1L1698 749.5L1706 742.7L1712 739.1L1721 737.9H1725L1727 735.5L1729 724.7L1732 718.3L1738 711.1L1743 705.5L1749 698.3L1756 694.7L1766 693.1L1771 689.5L1774 684.7L1768 680.3L1762 683.1L1759 685.9L1752 684.7V681.1L1757 683.9L1760 681.5L1764 676.7L1766 669.5L1760 666.7L1761 664.3L1758 659.5L1764 656.3L1761 661.5L1767 665.1L1772 664.3L1778 661.5L1783 649.9L1787 650.7L1788 645.1L1785 637.9L1780 634.3L1777 639.1L1778 648.7H1777L1775 641.5L1776 637.9L1774 634.7L1770 635.5L1764 639.9L1762 637.9L1757 640.7L1752 641.5L1749 633.5V629.1L1750 627.1V633.5L1752 637.1L1756 637.9L1760 634.3L1767 630.7L1765 628.3L1768 630.7L1771 626.3L1766 623.5H1768L1774 626.3V623.5V613.1L1777 615.5L1780 623.5L1781 622.7L1775 610.3L1767 595.1L1761 595.9L1757 595.1L1756 598.7H1754H1750V597.5L1743 593.9L1742 591.1L1733 588.7L1735 587.5L1740 589.5H1745V591.1L1753 595.1L1756 593.9V589.5L1751 587.9L1748 585.1L1752 583.1L1748 579.5L1749 577.1L1753 580.3L1754 574.3L1750 572.3L1743 569.9L1739 565.1L1737 564.3L1727 555.5L1736 562.3H1738L1742 567.9H1748L1749 565.1V559.1L1750 555.5L1739 551.9L1736 547.9L1728 548.3L1724 547.1L1722 544.7L1721 540.7L1714 544.3L1712 543.5L1710 537.1L1711 529.9L1714 530.3L1712 537.5L1714 542.7L1720 537.5L1725 543.5L1727 540.7L1729 544.3L1736 544.7L1740 547.9L1745 546.3L1742 539.1H1739L1741 536.3L1736 530.3L1734 523.1L1732 521.9L1734 513.1L1733 511.1V504.7L1729 502.3V501.1L1732 501.5L1734 495.1L1733 493.1L1736 495.9L1741 489.5V485.1L1744 483.5L1745 491.5L1741 492.3L1740 495.1L1738 503.1L1742 504.7V511.1L1743 515.5L1740 516.7V520.3L1743 521.1L1751 525.5L1746 523.9L1742 525.5L1745 529.1L1742 531.9L1746 536.3L1748 535.5L1754 539.9L1758 532.7V537.5H1761L1760 540.7L1764 545.5L1761 549.1L1769 548.3L1768 557.1L1766 559.9L1764 567.9V581.5L1766 586.7L1771 582.3L1773 569.9L1774 565.1V557.9L1778 549.9H1780L1782 543.5L1783 539.9L1784 523.9L1780 510.3L1776 509.5L1771 504.7L1767 501.1L1766 495.1L1764 490.3L1760 488.7L1757 484.3L1756 479.5L1758 469.9L1760 469.1L1757 477.9V478.7L1759 484.3L1764 486.7L1773 491.5L1782 492.3L1783 495.9L1782 499.5L1784 503.1L1787 498.7L1789 490.3L1792 484.3L1796 480.7L1798 476.3L1797 473.5L1800 471.5L1802 461.5L1801 446.3V437.5L1800 433.1H1792L1789 431.9L1791 426.7M1123 1005L1113 1013L1109 1017L1099 1021L1087 1029L1076 1033L1074 1037M1791 426.7V428.3L1790 431.1L1794 428.3V423.9L1791 425.5M1791 426.7V425.5M1791 425.5V424.7L1795 421.1V420.6L1801 415.3M1801 415.3V411.5L1803 406.7L1810 402.4L1816 395.9L1819 395.2L1824 388.7L1836 386.3L1841 382.9L1842 384.4L1853 379.1L1856 378.7L1868 373.5V368.3L1867 360.7L1866 356.3L1868 357.1H1872L1874 358.3L1871 365.5L1878 364.7L1883 361.1L1884 357.1L1890 351.9L1891 359.9L1897 357.5V354.7L1912 347.5L1908 343.9L1902 346.7L1898 349.1L1892 346.7L1891 342.7L1885 341.1L1886 335.9L1879 331.1L1878 330.3L1876 331.1L1872 330.3H1871L1872 324.7L1874 318.7L1880 315.1L1875 312.3L1872 305.1L1873 296.3L1874 295.9L1875 282.7L1879 277.9L1878 273.5L1882 271.1L1879 267.1L1881 261.9L1884 262.7L1889 259.9H1893L1894 254.7L1900 253.9V247.5L1902 245.9L1908 247.5L1909 240.3V233.1L1910 229.5L1908 225.1L1912 222.3V219.5L1914 228.7L1916 227.5L1921 227.9L1920 223.1L1926 219.5V225.9L1932 224.3L1933 221.5L1928 217.1L1933 215.9L1936 220.7L1938 217.1L1937 214.3L1940 211.5L1948 208.7V204.3H1952L1954 200.7L1958 199.9L1962 191.5L1952 179.1H1948L1947 181.9L1941 177.1V171.9L1938 169.1L1939 163.9L1933 164.7L1927 163.1L1924 152.3L1910 106.3L1904 102.7L1894 98.3L1891 99.1V102.7L1885 104.3L1877 110.7L1872 109.9L1871 102.7L1865 101.9L1852 140.3L1853 145.1L1854 151.9L1850 156.7L1849 163.1L1851 164.7L1850 170.3L1854 173.5L1853 176.3L1850 180.7L1851 183.5L1848 187.1L1845 191.9V195.5L1848 198.7L1843 199.9L1844 205.1L1840 203.5L1836 206.3V209.5L1830 207.9L1828 211.5V221.5L1815 224.3L1796 229.5L1777 233.9L1773 235.1L1752 241.1L1732 245.5H1729L1724 247.5L1716 256.3L1706 272.7L1704 277.9L1696 285.1L1692 289.1L1691 293.5L1695 297.9L1700 299.5L1698 305.1L1700 310.7L1701 315.1L1698 317.9L1695 318.7L1689 324.7L1687 328.3L1680 332.3L1674 333.1L1668 335.5L1662 337.5L1655 334.7L1648 335.5L1634 337.5L1629 339.1L1616 346.3L1619 353.5L1625 361.9L1626 365.5L1621 369.9L1619 375.5L1614 379.1L1610 383.5L1602 391.5L1586 404.3L1580 407.9L1566 415.9L1558 421.1L1552 427.5L1545 434.7L1538 435.5L1536 434.7L1529 439.9L1526 440.3L1522 442.7L1515 440.3L1508 442.7L1504 441.9L1506 439.1L1499 435.5L1489 431.9V429.1L1496 418.3L1498 415.1L1497 408.7L1498 405.1L1502 403.1L1504 398.7V390.7L1507 387.9L1509 393.1L1514 390.7V383.5V376.3V374.3L1511 366.3L1508 355.5L1504 344.7L1503 339.1L1498 332.3L1492 330.3L1488 333.1L1482 335.5L1479 341.9L1478 346.7L1471 353.5L1464 350.3L1462 347.5L1463 341.1L1464 337.5L1470 336.7L1472 328.7L1473 323.9L1478 320.3V313.1V303.5L1475 297.9L1472 295.9L1470 291.5L1474 286.3L1472 283.5L1470 279.9L1457 275.5L1454 273.5H1448L1444 268.3L1441 267.5L1437 268.3L1428 263.9L1422 267.5L1418 274.3L1419 282.7L1416 283.5L1411 287.9V290.7L1413 295.1V303.1L1411 305.9L1409 310.7L1406 310.3V297.1L1401 298.7L1400 303.1H1396L1392 305.9V311.5L1388 315.1L1389 323.1L1388 330.3L1385 338.3L1382 343.1L1386 353.5L1383 362.7L1386 368.3L1389 375.1L1394 382.7L1396 388.7L1398 397.9L1397 413.1L1395 421.1L1392 426.7L1388 436.7L1382 443.5L1379 445.5L1370 450.7H1365L1360 447.5L1357 441.9L1354 431.9L1351 429.1L1348 423.1L1349 414.7L1348 407.5L1349 402.3L1346 399.5L1343 385.1L1342 382.3L1345 369.1L1347 362.7L1346 353.9L1347 344.7L1351 341.1L1349 335.5L1351 326.7L1354 319.5V314.3L1358 310.7L1360 302.3L1362 300.7V295.9L1356 297.9L1351 310.7L1346 313.1L1342 320.3V321.5L1337 327.5L1334 326.7L1335 321.1L1337 314.3L1341 307.9L1344 307.1L1345 302.3V299.9L1349 294.3L1354 281.9L1359 274.3L1362 275.5L1365 273.5L1367 267.1H1374L1370 275.5L1372 277.1L1374 271.1L1377 270.7L1379 269.1L1380 263.9L1384 261.1L1392 261.9L1393 259.9L1400 258.3L1403 253.1L1409 252.7L1419 255.5L1425 260.3L1429 251.9L1436 253.1V255.5L1442 253.1H1446H1452L1444 244.7L1442 234.7L1443 231.1L1434 232.3L1431 235.9L1428 233.9L1424 235.1H1416L1415 233.9L1416 223.1L1408 224.3L1401 227.9L1390 228.7L1382 231.1L1371 239.5L1369 243.1L1363 242.3L1358 239.5L1354 241.1L1348 241.9L1342 235.9L1336 227.9L1329 225.9H1325L1319 225.1L1314 231.5L1313 225.9L1318 213.5L1324 209.5L1330 205.1V201.5L1319 202.7L1312 207.1L1310 210.7L1300 219.5L1298 223.1L1292 225.1L1290 228.7L1284 231.5L1274 233.9L1271 235.9L1267 240.3L1256 245.5H1252L1247 241.9L1241 245.5V238.3L1245 232.3L1242 229.5L1235 233.9L1222 239.5L1215 242.3L1208 241.9L1206 238.7L1214 231.5L1220 225.1L1224 223.1L1236 207.9L1244 200.7L1249 197.1L1266 190.7L1271 187.9L1275 183.5L1272 181.9L1267 184.3L1264 179.9L1260 179.1L1253 180.7H1242L1238 174.7L1234 177.5L1228 181.9L1223 184.3L1215 181.1L1212 177.5L1205 175.5L1206 173.5L1201 171.1L1198 172.7V177.1L1195 177.5L1191 168.3L1187 169.1L1184 164.7L1176 161.1H1174L1171 160.3L1163 163.1V164.7L1154 166.3L1152 161.9L1140 161.1L1136 159.1L1130 158.3L1128 155.5V151.1L1123 133.5L1120 130.7L1114 129.9L1115 146.7H1110H1079H1055L1034 145.9L1004 145.1L989.3 144.7L970.5 143.9L932.5 142.3L918.1 141.1L891.3 139.5L859.7 136.7L830.9 134.3L801.3 131.5L770.5 127.9L740.9 124.3L704.9 119.1L669.7 114.3L654.5 111.5L628.5 107.1L605.7 103.5L576.1 97.5L557.3 93.9L520.5 86.3L492.5 80.3L481.7 77.5L460.1 72.3L442.9 68.3L410.5 60.3L386.7 53.9L362.2 47.1L334.1 39.5L332 43.5L333.4 47.9L338.5 52.3L337.7 55.9L335.6 63.1L332.7 60.3L329.8 64.7L336.3 71.1L334.9 72.3V73.9V79.5L337.7 83.9L334.1 86.3L329.8 92.7L326.9 100.7V109.1L324.1 110.7L320.5 111.9L313.3 117.9L309.7 113.5L310.4 109.1L313.3 106.3V108.3L318.3 111.9L321.2 106.3L324.1 102.7L326.9 92.7L327.7 85.5L321.9 89.1L318.3 93.9L313.3 94.7L308.9 97.5L311.1 94.7L314 93.5L316.9 88.3L324.1 86.7L325.5 76.7L323.3 73.9L318.3 75.9L315.4 74.7L313.3 70.3L310.4 71.9L305.3 70.3L298.1 65.9L288.8 62.3L284.5 57.5L280.9 55.1L276.5 50.3L273.7 50.7L269.3 56.7L268.6 64.7L269.3 69.5L272.2 76.7V86.3L270.8 91.1L272.2 97.1L271.5 108.3L275.1 109.1V114.3L271.5 115.5L270.1 118.7L271.5 122.7L272.2 131.5L268.6 133.1L267.2 139.5L269.3 143.1L274.4 142.3L279.4 145.1L269.3 146.7L265.7 149.5L261.4 161.1V163.1L252.8 187.1L250.6 191.5L245.6 200.7L244.1 206.3L237.7 221.5L231.2 238.3L226.9 248.3L222.5 254.7L217.5 261.1L210.3 272.7L206.7 277.1L208.9 285.5L208.1 289.1L205.3 295.1L203.8 303.1V308.7L206.7 315.1L202.4 323.9L204.5 325.9L203.8 338.3L200.2 347.5L196.6 353.5L197.3 356.3L193.7 361.9L185.1 370.7L180.8 377.1L179.3 385.1L183.7 392.3L185.8 394.3L187.3 399.5L190.1 407.9L189.4 420.3L185.1 428.3L185.8 441.9L182.9 445.5L184.4 450.7L187.3 454.7L190.9 465.1L195.9 472.3L198.1 479.9V485.9L197.3 491.5L200.2 493.9L203.1 499.5L208.9 504.7L212.5 492.3L216.1 491.5L218.9 496.7L213.2 498.7L215.3 503.1L213.9 506.7L218.2 513.9L217.5 521.1L219.7 523.1L216.8 522.7L213.9 516.7L210.3 515.5L211 509.5L211.7 505.1L208.1 505.9L207.4 508.7L204.5 516.7L206 518.3L206.7 524.7L204.5 531.1L207.4 535.5L208.1 539.9L212.5 544.7H217.5L219.7 551.5L217.5 559.1L213.2 558.7L211 565.1L212.5 576.7L215.3 579.5L218.2 587.5L220.4 588.7V594.7L223.3 599.5L224.7 605.5L227.6 607.5L231.2 616.3L234.8 619.9L231.9 626.3L239.1 633.5L237.7 639.9L236.2 651.5L233.3 656.3L236.9 659.9L237.7 663.5L244.1 664.3L253.5 667.1L257.1 670.3L267.9 673.1L270.8 675.1L276.5 681.5L277.3 687.5L285.2 693.9L289.5 696.7H298.1L301.7 701.9L302.5 706.7L300.3 709.1L304.6 713.5H311.1L316.1 720.7L320.5 724.3L325.5 731.9L328.4 735.5L332 745.9L332.7 756.7L330.5 763.9L333.4 765.9L334.1 771.5L370.9 776.7L420.5 782.3L416.1 785.9L414.9 791.1L433.7 801.9L463.7 820.7L500.5 841.5L530.1 858.7L540.1 864.7L562.5 868.3L613.7 875.5L643.7 879.5L646.5 860.3L679.7 864.7L707.3 867.5L712.1 870.3L717.3 881.9L722.1 886.3L724.5 886.7L728.9 891.1L731.7 897.1L737.3 901.5L738.9 905.5L743.7 909.9L744.5 912.3L750.9 914.3L758.9 923.1L761.3 925.9L761.7 933.9L764.1 934.3L767.7 943.1L766.1 948.3L766.9 954.7L771.3 962.7L772.1 966.7L778.5 972.7L782.9 973.9L784.1 978.3L789.3 981.9L797.7 984.7L800.1 988.3L806.5 988.7L810.9 996.7L820.9 1001L833.7 983.5L835.3 977.1L838.1 973.5L840.5 968.3L848.1 966.3L851.3 967.5L854.9 962.7L863.3 967.5L866.9 966.3L874.9 968.3L879.3 969.9L882.1 968.3L886.5 970.3L892.1 975.5L891.3 977.5L897.3 982.7L900.9 983.5L902.1 987.9L910.1 992.7L914.5 1001V1005L918.1 1013L920.1 1017L921.7 1021L925.3 1029L926.9 1037L929.7 1041H934.5L938.1 1049L941.3 1053L941.7 1057L947.7 1061L952.1 1065L955.7 1069H956.9L955.7 1077L956.9 1081L958.5 1085L956.9 1089L963.3 1097L966.9 1109L970.1 1113L970.5 1117L977.7 1121H980.1L986.5 1125H989.3H994.5L1002 1133H1010H1018L1026 1137L1030 1141H1036H1037L1042 1137L1045 1133H1040L1039 1125H1040L1038 1117L1034 1109L1032 1101H1034L1036 1081M1801 415.3L1803 415.9V411.7L1807 408.9L1811 410.3L1812 405.9L1818 406.7L1823 403.1L1836 398.7L1842 392.3L1847 393.5L1850 392.3L1853 394.3L1856 389.9H1859L1843 403.5L1821 418.2L1816 420.7L1812 422.3L1805 423.9L1800 425.9L1796 424.7V421.1L1801 415.3ZM1074 1037L1068 1041L1058 1049V1045H1059L1064 1041L1068 1037H1074ZM1036 1081L1032 1077L1028 1081H1023L1031 1085L1036 1081ZM173.6 1157H172.1H170.7L171.4 1153H175L173.6 1157ZM162.8 1153L161.3 1157H157.7L158.5 1153H159.9H162.8ZM179.3 1153H177.2H176.5H177.9H180H179.3ZM188 1153H186.5H184.4H180.8L182.9 1149H187.2H188.7L188 1153ZM154.8 1157H152L146.9 1153H141.9H134.7L134 1149H141.9H144.8H148.4L151.2 1153H155.6L154.8 1157ZM1656 1153L1651 1157L1652 1149L1664 1141L1667 1145L1670 1149H1662L1656 1153ZM118.9 1145L123.9 1149H126.8H129.7H128.9L126.1 1153H118.9L114.5 1149H108.1V1141L112.4 1145H118.9ZM84.2901 1141H85.0101H82.1301L79.2501 1137L80.6901 1133L84.2901 1141ZM91.4901 1133L90.7701 1137L86.4501 1133H88.6101H90.7701H91.4901ZM72.7701 1129H69.1701L67.7301 1125H71.3301H73.4901V1129H72.7701ZM44.6501 1105L43.2101 1109L41.0501 1105L46.0901 1101H47.5301L44.6501 1105ZM766.1 1113V1121H769.7L771.3 1125L777.7 1129L767.7 1137L761.7 1141L756.9 1137L748.9 1141L741.7 1157L732.9 1145L730.9 1125L727.3 1117L735.3 1109L732.5 1101L734.5 1097L762.5 1109L766.1 1113ZM44.6501 1097H40.3301L35.3101 1093H37.4701H41.7701L44.6501 1097ZM344.9 1101L339.9 1105L337 1109L334.9 1105H333.4V1109L330.5 1113L327.7 1117L324.8 1113L326.9 1109L324.1 1101L328.4 1097L332 1101L336.3 1097V1089L341.3 1085H346.4V1089H340.6V1093L342.8 1097L344.9 1101ZM708.5 1085H697.7L706.5 1081L708.5 1085ZM694.9 1077H689.3L684.1 1069H688.5H695.7L694.9 1077ZM703.7 1061L709.3 1069H718.5L728.9 1073V1077L725.3 1081L711.3 1085L709.3 1073H705.7L700.5 1069V1065L703.7 1061ZM688.5 1053L689.7 1057H699.3L693.3 1061H674.1L677.7 1057H686.9L688.5 1053ZM242.7 1057H237.7L230.5 1049H240.5H242.7V1057ZM661.7 1049L660.9 1053H653.7H648.1H640.9L635.7 1041L642.9 1037L647.3 1033L653.3 1041L653.7 1045L656.9 1049H661.7ZM197.3 1037L193.7 1041L190.1 1037L191.6 1033L195.2 1037H197.3ZM564.5 1025L559.7 1029H556.5L557.3 1025L562.5 1021H565.3L564.5 1025ZM591.3 1025H581.3L574.5 1021L575.3 1017L583.3 1013H590.5L595.7 1017L591.3 1025ZM211.7 988.7L216.8 992.7H221.8L223.2 996.7L230.4 1001L221.8 1005L218.2 996.7H211L211.7 988.7ZM1251 980.7L1246 984.3L1238 980.7L1244 977.5L1251 980.7ZM319.7 894.3L320.5 899.9L324.1 895.5L328.4 900.7L334.9 898.3L337.7 899.9L338.5 902.7L341.3 905.5L352.9 902.7L362.2 907.1L372.3 906.3L376.6 909.1L384.5 904.3L398.9 909.9L426.5 1045L434.9 1049L439.3 1045L440.1 1049L454.5 1057L455.3 1061L460.9 1057L462.5 1049L467.3 1045H471.7L473.3 1049V1053L487.7 1061L503.3 1077L509.3 1081L519.3 1085H528.5L527.7 1089L532.1 1097L529.3 1105L524.9 1101L520.5 1105L515.7 1097H512.9L514.1 1101L518.5 1109L514.1 1113H512.1L500.5 1105V1097L496.9 1093L496.1 1101H491.7V1093L489.7 1089L488.9 1093H484.1L468.1 1077L465.3 1069L436.5 1057L437.7 1053H438.5H434.9L432.9 1057L423.3 1053H412.1L401.7 1061L403.3 1053H390.3L385.3 1045H375.9H370.9L372.3 1049L377.3 1053L375.9 1057L372.3 1061H365.8L357.2 1069L349.3 1073H344.9L352.9 1065H347.8H344.9L349.3 1057V1049L355.7 1045L358.6 1049L363.7 1045L357.2 1041H352.9L346.4 1049L341.3 1057H339.2V1061L336.3 1065H335.6L333.4 1069H330.5L329.8 1077H334.1L330.5 1085L327.7 1089L321.9 1093L319.7 1097H316.9L314 1101H311.1L309.7 1105L305.3 1109H301.7L300.3 1113H295.3L293.1 1117L289.5 1121L285.2 1125H279.4H275.8H275.1L270.1 1129L267.9 1125H265.7L263.6 1129L260.7 1133H256.4H252L248.4 1137H242.7L234 1141L233.3 1137L237.6 1129H248.4H253.5L262.8 1121H270H272.2L274.4 1117L280.1 1113L288.8 1109H291.6L294.5 1101L299.6 1097H300.3L302.5 1085L306.8 1077L297.4 1081L294.5 1077L291.7 1085L287.3 1077H283.7L280.9 1073L275.8 1077H272.2L269.3 1081L266.5 1077H268.6L267.9 1069L271.5 1065L267.9 1057L261.4 1061L254.9 1057L248.4 1049L247 1045L249.2 1041H247.7L245.6 1037L244.8 1033L242.7 1029L245.6 1025L247.7 1021L254.2 1017L257.1 1009H260H265L266.5 1013L272.2 1009L279.4 1005H284.5L283.7 996.7L280.1 992.7L285.2 988.7L284.4 984.7L280.1 985.5L275.8 988.3L272.2 992.7L270.8 988.7L265.7 988.3H257.8L249.9 984.3L248.4 977.5L252 973.9L242 968.3L260.7 959.5L269.3 958.3V964.7L280.8 969.1L284.4 963.9L283 957.5L285.9 954.7L272.2 951.1L270.8 942.3L258.5 930.3L261.4 927.9L262.1 922.3H275.1L286.6 905.5L292.4 905.1L302.4 898.3H308.2L316.1 891.1L319.7 894.3ZM286.6 738.7L293.1 749.5L288.8 747.1L286.6 738.7ZM257.8 685.9V690.3L252.8 688.3L252.1 684.7L257.8 685.9ZM248.5 688.7L243.4 689.5L240.5 683.9L246.3 684.7L248.5 688.7ZM1798 661.5L1799 663.5H1796L1792 666.7L1794 665.1L1796 662.3L1798 661.5ZM1900 365.5L1888 369.1L1890 368.3L1894 361.1L1900 365.5ZM1915 366.3L1912 367.1L1908 366.3L1912 364.7L1913 361.1L1916 364.3L1915 366.3ZM1464 250.3L1455 253.9L1452 252.7L1458 248.3L1460 245.9L1464 250.3ZM1294 185.5L1290 189.1L1286 187.9L1288 184.7L1296 180.7L1306 173.5V177.1L1303 180.7L1294 185.5ZM333.4 81.9V85.5L326.9 80.3L328.4 75.5L324.8 71.1L329.8 69.5L329.1 79.5L333.4 81.9ZM321.9 56.7H317.6L316.8 52.3H320.5L321.9 56.7ZM330.5 53.1L327.6 55.1L322.6 52.3L326.2 50.3L330.5 53.1Z" stroke="black" stroke-width="2" stroke-linecap="round" stroke-linejoin="round"/>
</svg>
